<svg width="15" height="14" viewBox="0 0 15 14" fill="none" xmlns="http://www.w3.org/2000/svg">
    <path
        d="M11.3245 12.3347H10.5453V2.65323C10.5453 2.43497 10.3684 2.25806 10.1501 2.25806H7.18639V1.27016C7.18639 1.05191 7.00948 0.875 6.79123 0.875H4.0498C3.83155 0.875 3.65464 1.05191 3.65464 1.27016V2.25806H3.33357C3.11532 2.25806 2.93841 2.43497 2.93841 2.65323V12.3347H2.15918C1.94633 12.3347 1.76327 12.4983 1.75337 12.7109C1.7428 12.9379 1.92349 13.125 2.14809 13.125H4.96361C5.07273 13.125 5.16119 13.0365 5.16119 12.9274V10.6552H4.99947C4.7867 10.6552 4.60362 10.4917 4.59359 10.2792C4.5829 10.0523 4.76373 9.86492 4.98831 9.86492C5.10762 9.86492 8.58292 9.86492 8.4842 9.86492C8.69697 9.86492 8.88005 10.0284 8.89008 10.241C8.90078 10.4679 8.71996 10.6552 8.49537 10.6552H8.32248V12.9274C8.32248 13.0365 8.41095 13.125 8.52006 13.125H11.3356C11.5602 13.125 11.7409 12.9379 11.7303 12.7109C11.7204 12.4983 11.5373 12.3347 11.3245 12.3347ZM5.77863 9.0499H5.33407C5.11585 9.0499 4.93891 8.87297 4.93891 8.65474C4.93891 8.43651 5.11585 8.25958 5.33407 8.25958H5.77863C5.99686 8.25958 6.17379 8.43651 6.17379 8.65474C6.17379 8.87297 5.99686 9.0499 5.77863 9.0499ZM5.77863 7.56804H5.33407C5.11585 7.56804 4.93891 7.39111 4.93891 7.17288C4.93891 6.95466 5.11585 6.77772 5.33407 6.77772H5.77863C5.99686 6.77772 6.17379 6.95466 6.17379 7.17288C6.17379 7.39111 5.99686 7.56804 5.77863 7.56804ZM5.77863 6.08619H5.33407C5.11585 6.08619 4.93891 5.90926 4.93891 5.69103C4.93891 5.4728 5.11585 5.29587 5.33407 5.29587H5.77863C5.99686 5.29587 6.17379 5.4728 6.17379 5.69103C6.17379 5.90926 5.99686 6.08619 5.77863 6.08619ZM5.77863 4.60433H5.33407C5.11585 4.60433 4.93891 4.4274 4.93891 4.20917C4.93891 3.99095 5.11585 3.81401 5.33407 3.81401H5.77863C5.99686 3.81401 6.17379 3.99095 6.17379 4.20917C6.17379 4.4274 5.99686 4.60433 5.77863 4.60433ZM8.1249 9.0499H7.68035C7.46209 9.0499 7.28518 8.87297 7.28518 8.65474C7.28518 8.43651 7.46209 8.25958 7.68035 8.25958H8.1249C8.34315 8.25958 8.52006 8.43651 8.52006 8.65474C8.52006 8.87297 8.34315 9.0499 8.1249 9.0499ZM8.1249 7.56804H7.68035C7.46209 7.56804 7.28518 7.39111 7.28518 7.17288C7.28518 6.95466 7.46209 6.77772 7.68035 6.77772H8.1249C8.34315 6.77772 8.52006 6.95466 8.52006 7.17288C8.52006 7.39111 8.34315 7.56804 8.1249 7.56804ZM8.1249 6.08619H7.68035C7.46209 6.08619 7.28518 5.90926 7.28518 5.69103C7.28518 5.4728 7.46209 5.29587 7.68035 5.29587H8.1249C8.34315 5.29587 8.52006 5.4728 8.52006 5.69103C8.52006 5.90926 8.34315 6.08619 8.1249 6.08619ZM8.1249 4.60433H7.68035C7.46209 4.60433 7.28518 4.4274 7.28518 4.20917C7.28518 3.99095 7.46209 3.81401 7.68035 3.81401H8.1249C8.34315 3.81401 8.52006 3.99095 8.52006 4.20917C8.52006 4.4274 8.34315 4.60433 8.1249 4.60433ZM5.95151 12.9274V10.8528C5.95151 10.7437 6.03998 10.6552 6.1491 10.6552H7.33458C7.44369 10.6552 7.53216 10.7437 7.53216 10.8528V12.9274C7.53216 13.0365 7.44369 13.125 7.33458 13.125H6.1491C6.03998 13.125 5.95151 13.0365 5.95151 12.9274Z"
        fill="#51A1F5" />
</svg>
