<svg width="14" height="14" viewBox="0 0 14 14" fill="none" xmlns="http://www.w3.org/2000/svg">
    <path
        d="M9.37897 1.15527C9.62662 1.1547 9.82244 1.34522 9.82302 1.59925L9.82359 2.03225C11.4305 2.15696 12.4919 3.2412 12.4937 4.90393L12.5 9.77088C12.5023 11.5837 11.3521 12.6991 9.50855 12.702L5.00527 12.7078C3.1732 12.7101 2.00865 11.5681 2.00634 9.7501L2 4.9403C1.9977 3.2666 3.02173 2.18525 4.6286 2.03918L4.62803 1.60618C4.62745 1.35215 4.81751 1.16105 5.07093 1.16105C5.32434 1.16047 5.5144 1.35099 5.51498 1.60502L5.51555 2.00916L8.93664 2.00454L8.93607 1.6004C8.93549 1.34637 9.12555 1.15585 9.37897 1.15527ZM9.61395 9.35289H9.60819C9.34326 9.35924 9.13074 9.5792 9.1365 9.84478C9.13707 10.1104 9.35075 10.3292 9.61568 10.3349C9.8858 10.3344 10.1047 10.1144 10.1041 9.84305C10.1041 9.5717 9.88464 9.35289 9.61395 9.35289ZM4.8682 9.35347C4.60326 9.36501 4.39592 9.58498 4.3965 9.85055C4.40859 10.1161 4.62745 10.324 4.89238 10.3118C5.15213 10.3003 5.3589 10.0803 5.3468 9.81476C5.34104 9.55496 5.12737 9.35289 4.8682 9.35347ZM7.24107 9.35058C6.97614 9.3627 6.76938 9.58209 6.76938 9.84767C6.78147 10.1132 7.00033 10.3205 7.26526 10.309C7.52444 10.2968 7.73177 10.0774 7.71968 9.81129C7.71392 9.55207 7.50025 9.35 7.24107 9.35058ZM4.86532 7.27505C4.60038 7.2866 4.39362 7.50656 4.39419 7.77214C4.40571 8.03771 4.62515 8.24556 4.89008 8.23343C5.14925 8.22188 5.35602 8.00192 5.34392 7.73634C5.33816 7.47654 5.12507 7.27447 4.86532 7.27505ZM7.23877 7.25484C6.97384 7.26639 6.7665 7.48636 6.76707 7.75193C6.77859 8.01751 6.99803 8.22477 7.26296 8.21322C7.52213 8.2011 7.7289 7.98171 7.71738 7.71614C7.71104 7.45634 7.49794 7.25427 7.23877 7.25484ZM9.61165 7.25773C9.34671 7.2635 9.13938 7.47712 9.13995 7.74269V7.74905C9.14571 8.01462 9.36457 8.21611 9.63008 8.21034C9.88925 8.20399 10.096 7.98402 10.0903 7.71845C10.0782 7.46442 9.87024 7.25715 9.61165 7.25773ZM8.9378 2.89364L5.51671 2.89826L5.51728 3.36532C5.51728 3.61416 5.3278 3.81045 5.07438 3.81045C4.82097 3.81103 4.63033 3.61531 4.63033 3.36648L4.62976 2.92193C3.50667 3.03335 2.88523 3.6869 2.88695 4.93914L2.88753 5.1187L11.6073 5.10715V4.90508C11.5825 3.66381 10.9536 3.01257 9.82475 2.91558L9.82532 3.36013C9.82532 3.60838 9.63008 3.80525 9.38242 3.80525C9.12901 3.80583 8.93837 3.60954 8.93837 3.36128L8.9378 2.89364Z"
        fill="#51A1F5" />
</svg>
