<svg width="15" height="14" viewBox="0 0 15 14" fill="none" xmlns="http://www.w3.org/2000/svg">
    <g clip-path="url(#clip0_7_984)">
        <path
            d="M12.397 8.83967C11.7669 8.20906 10.8925 7.94191 9.76963 8.24284L5.76547 4.23462L5.8184 4.0345C6.04902 3.16921 5.79983 2.23909 5.16829 1.60755C4.52526 0.964022 3.61111 0.727899 2.74655 0.965386C2.62326 0.999241 2.5273 1.09612 2.49464 1.21974C2.46198 1.34336 2.4978 1.47476 2.58816 1.56518L3.5523 2.52931C3.83417 2.81188 3.83141 3.26441 3.55299 3.54357C3.27677 3.82054 2.81247 3.8201 2.53735 3.54427L1.57302 2.57987C1.4826 2.48941 1.35082 2.45392 1.2272 2.48677C1.10355 2.5196 1.00703 2.6158 0.973298 2.73921C0.739281 3.59427 0.969494 4.51409 1.61561 5.16021C2.24548 5.79053 3.11874 6.05864 4.24231 5.75706L8.24678 9.76528C7.94795 10.8879 8.20573 11.7537 8.84433 12.3923C9.48817 13.0367 10.4028 13.271 11.2654 13.0343C11.3887 13.0005 11.4847 12.9036 11.5174 12.78C11.5501 12.6564 11.5143 12.5249 11.4239 12.4345L10.46 11.4706C10.1781 11.188 10.1808 10.7354 10.4593 10.4563C10.7389 10.1781 11.2022 10.1825 11.4749 10.456L12.4393 11.4201C12.5297 11.5105 12.6615 11.546 12.7851 11.5132C12.9087 11.4803 13.0052 11.3841 13.039 11.2608C13.273 10.4058 13.0428 9.48578 12.397 8.83967Z"
            fill="#51A1F5" />
        <path
            d="M4.71903 7.2533L1.29784 10.6749C0.737958 11.2348 0.737958 12.1453 1.29784 12.7051C1.85773 13.265 2.7682 13.265 3.32806 12.7051L6.74917 9.28361L4.71903 7.2533ZM2.9909 11.5914C2.85069 11.7316 2.62364 11.7316 2.48343 11.5914C2.34325 11.4512 2.34325 11.2241 2.48343 11.0839L4.66019 8.90673C4.80037 8.76655 5.0275 8.76655 5.16766 8.90673C5.30784 9.04691 5.30784 9.27401 5.16766 9.41419L2.9909 11.5914Z"
            fill="#51A1F5" />
        <path
            d="M13.0224 1.59895L12.4037 0.980255C12.2872 0.863809 12.1065 0.841558 11.9653 0.926231L10.0621 2.06804C9.86182 2.18817 9.82782 2.46444 9.99291 2.62955L10.1444 2.781L7.72839 5.18714L8.74368 6.20242L11.1597 3.79629L11.3731 4.00973C11.5382 4.17479 11.8145 4.14082 11.9346 3.94056L13.0764 2.03734C13.161 1.89611 13.1388 1.7154 13.0224 1.59895Z"
            fill="#51A1F5" />
    </g>
    <defs>
        <clipPath id="clip0_7_984">
            <rect width="14" height="14" fill="white" transform="translate(0.00292969)" />
        </clipPath>
    </defs>
</svg>
