<svg width="24" height="24" viewBox="0 0 24 24" fill="none" xmlns="http://www.w3.org/2000/svg">
    <path
        d="M7.5 2.25C7.5 2.05109 7.57902 1.86032 7.71967 1.71967C7.86032 1.57902 8.05109 1.5 8.25 1.5L14.25 1.5C14.4489 1.5 14.6397 1.57902 14.7803 1.71967C14.921 1.86032 15 2.05109 15 2.25C15 2.44891 14.921 2.63968 14.7803 2.78033C14.6397 2.92098 14.4489 3 14.25 3L8.25 3C8.05109 3 7.86032 2.92098 7.71967 2.78033C7.57902 2.63968 7.5 2.44891 7.5 2.25Z"
        fill="#51A1F5" />
    <path
        d="M11.25 22.5C13.6369 22.5 15.9261 21.5518 17.614 19.864C19.3018 18.1761 20.25 15.887 20.25 13.5C20.25 11.1131 19.3018 8.82387 17.614 7.13604C15.9261 5.44821 13.6369 4.5 11.25 4.5C8.86305 4.5 6.57387 5.44821 4.88604 7.13604C3.19821 8.82387 2.25 11.1131 2.25 13.5C2.25 15.8869 3.19821 18.1761 4.88604 19.864C6.57386 21.5518 8.86305 22.5 11.25 22.5V22.5ZM11.25 7.5C11.4489 7.5 11.6397 7.57902 11.7803 7.71967C11.921 7.86032 12 8.05109 12 8.25L12 14.25C12 14.4489 11.921 14.6397 11.7803 14.7803C11.6397 14.921 11.4489 15 11.25 15C11.0511 15 10.8603 14.921 10.7197 14.7803C10.579 14.6397 10.5 14.4489 10.5 14.25L10.5 8.25C10.5 8.05109 10.579 7.86032 10.7197 7.71967C10.8603 7.57902 11.0511 7.5 11.25 7.5V7.5Z"
        fill="#51A1F5" />
    <path
        d="M18.6795 3.96297C18.6103 3.89134 18.5275 3.83421 18.436 3.7949C18.3445 3.75559 18.2461 3.7349 18.1465 3.73404C18.0469 3.73317 17.9482 3.75215 17.856 3.78986C17.7638 3.82757 17.6801 3.88326 17.6097 3.95368C17.5393 4.0241 17.4836 4.10784 17.4459 4.20001C17.4082 4.29218 17.3892 4.39094 17.39 4.49053C17.3909 4.59011 17.4116 4.68853 17.4509 4.78003C17.4902 4.87153 17.5473 4.95429 17.619 5.02347L19.7235 7.12797C19.7927 7.19961 19.8754 7.25674 19.9669 7.29605C20.0584 7.33536 20.1568 7.35605 20.2564 7.35691C20.356 7.35778 20.4548 7.3388 20.5469 7.30109C20.6391 7.26338 20.7229 7.20769 20.7933 7.13727C20.8637 7.06685 20.9194 6.98311 20.9571 6.89094C20.9948 6.79877 21.0138 6.70001 21.0129 6.60042C21.0121 6.50084 20.9914 6.40242 20.9521 6.31092C20.9127 6.21942 20.8556 6.13666 20.784 6.06747L18.6795 3.96297Z"
        fill="#51A1F5" />
</svg>
