<svg width="15" height="15" viewBox="0 0 15 15" fill="none" xmlns="http://www.w3.org/2000/svg">
    <path
        d="M12.7253 8.05466C12.7674 8.07806 12.7758 8.12766 12.7774 8.14657L12.7779 8.1541L12.7312 11.1373C12.7312 12.3272 11.8 13.2976 10.6276 13.3571L10.5134 13.36H3.48655C2.29924 13.36 1.33101 12.4268 1.27166 11.2517L1.26877 11.1373L1.22792 8.1541C1.22792 8.1541 1.22792 8.08391 1.28044 8.05466C1.32713 8.02542 1.3855 8.06051 1.39133 8.06636C2.57026 8.85017 3.98847 9.37077 5.47671 9.58719C5.68681 9.61644 5.89692 9.4819 5.95528 9.27133C6.07565 8.82166 6.44737 8.51594 6.90213 8.47948L6.99413 8.47582H7.01164C7.50773 8.47582 7.9221 8.79168 8.0505 9.27133C8.10886 9.4819 8.31896 9.61644 8.52907 9.58719C10.0173 9.37077 11.4355 8.85017 12.6144 8.06636C12.6144 8.06636 12.6261 8.06051 12.6378 8.05466C12.6611 8.04296 12.6962 8.03711 12.7253 8.05466ZM6.99997 9.31227C6.78063 9.31227 6.59561 9.47939 6.5663 9.69196L6.56225 9.75097V10.5055C6.56225 10.7512 6.76068 10.9442 6.99997 10.9442C7.22467 10.9442 7.40523 10.782 7.43376 10.5658L7.43769 10.5055V9.75097C7.43769 9.51115 7.24509 9.31227 6.99997 9.31227ZM7.75285 1.8075C8.62829 1.8075 9.34614 2.46847 9.45703 3.31663H10.6126C11.8382 3.31663 12.8362 4.31687 12.8362 5.54523C12.8362 5.54523 12.8012 6.06524 12.7895 6.78939C12.7884 6.84671 12.7604 6.90287 12.7142 6.93679C12.4335 7.14211 12.1767 7.31174 12.1534 7.32343C11.1846 7.96686 10.0588 8.4196 8.8594 8.6448C8.7812 8.66001 8.70416 8.61965 8.66447 8.55063C8.3283 7.97388 7.70032 7.59835 6.99997 7.59835C6.30429 7.59835 5.67047 7.96979 5.32438 8.54712C5.28411 8.61497 5.20824 8.65416 5.13062 8.63954C3.94119 8.41375 2.81538 7.9616 1.8524 7.32928L1.29212 6.94323C1.24543 6.91398 1.21625 6.86134 1.21625 6.80284C1.19874 6.50453 1.16956 5.54523 1.16956 5.54523C1.16956 4.31687 2.16755 3.31663 3.39317 3.31663H4.54291C4.6538 2.46847 5.37166 1.8075 6.2471 1.8075H7.75285ZM7.75285 2.6849H6.2471C5.85607 2.6849 5.5234 2.95397 5.43002 3.31663H8.56992C8.47654 2.95397 8.14388 2.6849 7.75285 2.6849Z"
        fill="#51A1F5" />
</svg>
