<svg width="24" height="26" viewBox="0 0 24 26" fill="none" xmlns="http://www.w3.org/2000/svg">
    <path
        d="M16.5621 0.500003C17.0928 0.498756 17.5124 0.91105 17.5136 1.46077L17.5148 2.39781C20.9582 2.66767 23.2327 5.01399 23.2364 8.61219L23.25 19.1444C23.2549 23.0675 20.7903 25.4812 16.8398 25.4875L7.18986 25.5C3.264 25.505 0.768529 23.0337 0.763592 19.0994L0.750008 8.6909C0.74508 5.06897 2.93942 2.72889 6.38272 2.4128L6.38149 1.47577C6.38025 0.926042 6.78753 0.512499 7.33056 0.512499C7.87359 0.51125 8.28086 0.923544 8.28209 1.47327L8.28333 2.34783L15.6142 2.33784L15.613 1.46327C15.6118 0.913548 16.019 0.501255 16.5621 0.500003ZM17.0656 18.2399H17.0533C16.4856 18.2536 16.0302 18.7296 16.0425 19.3043C16.0437 19.8791 16.5016 20.3526 17.0693 20.3651C17.6481 20.3638 18.1171 19.8878 18.1159 19.3006C18.1159 18.7134 17.6457 18.2399 17.0656 18.2399ZM6.89613 18.2411C6.32842 18.2661 5.88412 18.7421 5.88535 19.3168C5.91127 19.8915 6.38025 20.3413 6.94797 20.3151C7.50457 20.2901 7.94764 19.8141 7.92172 19.2394C7.90938 18.6772 7.4515 18.2399 6.89613 18.2411ZM11.9809 18.2349C11.4132 18.2611 10.9701 18.7359 10.9701 19.3106C10.996 19.8853 11.465 20.3338 12.0327 20.3088C12.5881 20.2826 13.0324 19.8078 13.0065 19.2319C12.9941 18.6709 12.5362 18.2336 11.9809 18.2349ZM6.88996 13.7434C6.32225 13.7684 5.87919 14.2444 5.88042 14.8191C5.9051 15.3938 6.37532 15.8436 6.94303 15.8173C7.4984 15.7923 7.94147 15.3163 7.91555 14.7416C7.90321 14.1794 7.44657 13.7421 6.88996 13.7434ZM11.9759 13.6996C11.4082 13.7246 10.9639 14.2006 10.9652 14.7754C10.9898 15.3501 11.4601 15.7986 12.0278 15.7736C12.5831 15.7474 13.0262 15.2726 13.0015 14.6979C12.9879 14.1357 12.5313 13.6984 11.9759 13.6996ZM17.0607 13.7059C16.493 13.7184 16.0487 14.1807 16.0499 14.7554V14.7691C16.0622 15.3438 16.5312 15.7799 17.1002 15.7674C17.6555 15.7536 18.0986 15.2776 18.0863 14.7029C18.0603 14.1532 17.6148 13.7046 17.0607 13.7059ZM15.6167 4.26187L8.2858 4.27187L8.28703 5.28261C8.28703 5.82109 7.88099 6.24588 7.33796 6.24588C6.79493 6.24713 6.38643 5.82359 6.38643 5.28511L6.38519 4.32309C3.97858 4.56422 2.64692 5.97851 2.65062 8.6884L2.65186 9.07696L21.337 9.05197V8.61469C21.284 5.92854 19.9363 4.51924 17.5173 4.30935L17.5185 5.27137C17.5185 5.8086 17.1002 6.23463 16.5695 6.23463C16.0264 6.23588 15.6179 5.8111 15.6179 5.27386L15.6167 4.26187Z"
        fill="#2196F3" />
</svg>
